<?xml version="1.0" encoding="UTF-8" standalone="no"?>
<svg
   height="24px"
   viewBox="0 -960 960 960"
   width="24px"
   fill="#e3e3e3"
   version="1.1"
   id="svg1"
   sodipodi:docname="wallpaper_slideshow_24dp_E3E3E3_FILL0_wght400_GRAD0_opsz24.svg"
   inkscape:version="1.4.4 (dcaf3e7, 2026-05-05)"
   xmlns:inkscape="http://www.inkscape.org/namespaces/inkscape"
   xmlns:sodipodi="http://sodipodi.sourceforge.net/DTD/sodipodi-0.dtd"
   xmlns="http://www.w3.org/2000/svg"
   xmlns:svg="http://www.w3.org/2000/svg">
  <defs
     id="defs1" />
  <sodipodi:namedview
     id="namedview1"
     pagecolor="#ffffff"
     bordercolor="#000000"
     borderopacity="0.25"
     inkscape:showpageshadow="2"
     inkscape:pageopacity="0.0"
     inkscape:pagecheckerboard="0"
     inkscape:deskcolor="#d1d1d1"
     inkscape:zoom="32.208333"
     inkscape:cx="11.984476"
     inkscape:cy="12"
     inkscape:window-width="1920"
     inkscape:window-height="991"
     inkscape:window-x="-9"
     inkscape:window-y="-9"
     inkscape:window-maximized="1"
     inkscape:current-layer="svg1" />
  <path
     d="M651.5-651.5Q640-663 640-680t11.5-28.5Q663-720 680-720t28.5 11.5Q720-697 720-680t-11.5 28.5Q697-640 680-640t-28.5-11.5ZM360-400l108-140 62 80 92-120 138 180H360ZM160-80q-33 0-56.5-23.5T80-160v-560h80v560h560v80H160Zm80-505v-215q0-33 23.5-56.5T320-880h200v80H320v215h-80Zm80 345q-33 0-56.5-23.5T240-320v-185h80v185h200v80H320Zm280 0v-80h200v-185h80v185q0 33-23.5 56.5T800-240H600Zm200-345v-215H600v-80h200q33 0 56.5 23.5T880-800v215h-80Z"
     id="path1"
     style="fill:#2a7fff" />
</svg>
